<?xml version="1.0" encoding="UTF-8" standalone="no"?>
<svg width="18px" height="25px" viewBox="0 0 18 25" version="1.1" xmlns="http://www.w3.org/2000/svg" xmlns:xlink="http://www.w3.org/1999/xlink">
    <!-- Generator: sketchtool 3.8.3 (29802) - http://www.bohemiancoding.com/sketch -->
    <title>0AE38179-D9D2-4EF2-9B6B-E10935DAC63C</title>
    <desc>Created with sketchtool.</desc>
    <defs></defs>
    <g id="Listevisning" stroke="none" stroke-width="1" fill="none" fill-rule="evenodd">
        <g id="listevisning-etter-test-1" transform="translate(-82.000000, -476.000000)" fill="#0067C5">
            <g id="Ikon_tekst" transform="translate(82.000000, 476.392578)">
                <g id="Ikon">
                    <path d="M11.5,6.5 L11.5,0.5 L17.5,6.5 L11.5,6.5 Z M13.5,11 L4.5,11 C4.224,11 4,10.776 4,10.5 C4,10.224 4.224,10 4.5,10 L13.5,10 C13.776,10 14,10.224 14,10.5 C14,10.776 13.776,11 13.5,11 L13.5,11 Z M13.5,14 L4.5,14 C4.224,14 4,13.776 4,13.5 C4,13.224 4.224,13 4.5,13 L13.5,13 C13.776,13 14,13.224 14,13.5 C14,13.776 13.776,14 13.5,14 L13.5,14 Z M13.5,17 L4.5,17 C4.224,17 4,16.776 4,16.5 C4,16.224 4.224,16 4.5,16 L13.5,16 C13.776,16 14,16.224 14,16.5 C14,16.776 13.776,17 13.5,17 L13.5,17 Z M13.5,20 L4.5,20 C4.224,20 4,19.776 4,19.5 C4,19.224 4.224,19 4.5,19 L13.5,19 C13.776,19 14,19.224 14,19.5 C14,19.776 13.776,20 13.5,20 L13.5,20 Z M4.5,7 L9,7 C9.276,7 9.5,7.224 9.5,7.5 C9.5,7.776 9.276,8 9,8 L4.5,8 C4.224,8 4,7.776 4,7.5 C4,7.224 4.224,7 4.5,7 L4.5,7 Z M17.853,6.146 L11.853,0.146 C11.76,0.053 11.632,0 11.5,0 L0.5,0 C0.224,0 0,0.224 0,0.5 L0,23.5 C0,23.776 0.224,24 0.5,24 L17.5,24 C17.776,24 18,23.776 18,23.5 L18,6.5 C18,6.367 17.947,6.24 17.853,6.146 L17.853,6.146 Z" id="Fill-1786"></path>
                </g>
            </g>
        </g>
    </g>
</svg>