<?xml version="1.0" encoding="UTF-8" standalone="no"?>
<svg width="64px" height="64px" viewBox="0 0 64 64" version="1.1" xmlns="http://www.w3.org/2000/svg" xmlns:xlink="http://www.w3.org/1999/xlink">
    <!-- Generator: Sketch 3.8.3 (29802) - http://www.bohemiancoding.com/sketch -->
    <title>logo</title>
    <desc>Created with Sketch.</desc>
    <defs></defs>
    <g id="Sort-bar" stroke="none" stroke-width="1" fill="none" fill-rule="evenodd">
        <g id="logo" fill="#FFFFFF">
            <g id="hvit-logo" transform="translate(6.000000, 13.000000)">
                <g id="Nav_logo_hvit-midstilt-sirkel-01">
                    <g id="Layer_1">
                        <g id="Page-1_1_">
                            <g id="NAV_Kampanjeside_Black">
                                <g id="Page-1">
                                    <path d="M26.6,34.7307692 L25.1461538,34.7307692 L24.9846154,34.7307692 C24.5538462,34.6769231 24.0692308,34.6769231 23.6384615,34.6230769 C21.8076923,34.4076923 20.0307692,33.8692308 18.3615385,33.0615385 C16.2076923,32.0384615 14.3230769,30.5846154 12.7615385,28.7538462 C10.4461538,26.0615385 9.1,22.9384615 8.72307692,19.4384615 C8.56153846,17.8230769 8.61538462,16.1538462 8.88461538,14.5384615 C9.20769231,12.7615385 9.74615385,11.0923077 10.6076923,9.53076923 C12.5461538,5.92307692 15.4,3.28461538 19.1692308,1.66923077 C20.7846154,0.969230769 22.4538462,0.538461538 24.2307692,0.376923077 C24.5538462,0.323076923 24.8769231,0.323076923 25.1461538,0.269230769 L26.6538462,0.269230769 L26.8153846,0.269230769 C27.3538462,0.323076923 27.8384615,0.376923077 28.3769231,0.430769231 C29.8307692,0.646153846 31.1769231,1.02307692 32.5230769,1.56153846 C35.4307692,2.74615385 37.8,4.63076923 39.6846154,7.10769231 C41.6769231,9.74615385 42.8076923,12.6538462 43.0769231,15.9384615 C43.1846154,17.3384615 43.1307692,18.7384615 42.9692308,20.0846154 C42.7,22.0230769 42.1076923,23.8 41.1923077,25.5230769 C39.7384615,28.2153846 37.7461538,30.3692308 35.1615385,32.0384615 C32.7384615,33.5461538 30.1538462,34.4076923 27.3,34.6230769 C27.0307692,34.7307692 26.8153846,34.7307692 26.6,34.7307692 M15.7769231,19.0076923 L15.7769231,19.0076923 L15.7230769,18.7923077 L15.7230769,16.5846154 C15.7230769,16.3692308 15.6692308,16.2615385 15.4538462,16.2615385 L12.7615385,16.2615385 C12.6,16.2615385 12.4923077,16.3153846 12.4384615,16.4769231 C12.2769231,16.9615385 12.0615385,17.3923077 11.9,17.8769231 C11.7384615,18.3076923 11.5769231,18.7384615 11.3615385,19.1692308 C11.2538462,19.3846154 11.3076923,19.4923077 11.5769231,19.4923077 L12.3846154,19.4923077 C12.5461538,19.4923077 12.5461538,19.4923077 12.5461538,19.7076923 L12.5461538,24.6615385 C12.5461538,24.9846154 12.6,25.0384615 12.9230769,25.0384615 L15.4,25.0384615 C15.7230769,25.0384615 15.7769231,24.9846154 15.7769231,24.6615385 L15.7769231,19.7615385 L15.7769231,19.6 L15.8307692,19.6 C16.3692308,19.6 16.9076923,19.6 17.4461538,19.6538462 C17.9846154,19.7076923 18.1461538,19.9230769 18.2538462,20.4076923 C18.2538462,20.5692308 18.3076923,20.7307692 18.3076923,20.8923077 L18.3076923,24.8230769 C18.3076923,25.0384615 18.3615385,25.1461538 18.6307692,25.1461538 L21.1076923,25.1461538 C21.3230769,25.1461538 21.4846154,25.0384615 21.5923077,24.8230769 C21.6461538,24.6076923 21.7538462,24.4461538 21.8076923,24.2307692 C21.9153846,23.9615385 22.0230769,23.7461538 22.1307692,23.4769231 L22.1846154,23.5307692 C22.4538462,23.8538462 22.7769231,24.1769231 23.1538462,24.4461538 C24.0153846,25.0384615 25.0384615,25.2 26.0615385,25.1461538 C26.2769231,25.1461538 26.3846154,24.9846154 26.4923077,24.8230769 C26.7615385,24.0692308 27.0846154,23.3692308 27.3538462,22.6153846 C27.3538462,22.5615385 27.4076923,22.5615385 27.4076923,22.5076923 L27.4076923,22.6692308 L27.4076923,24.8230769 C27.4076923,25.0384615 27.4615385,25.0923077 27.6769231,25.0923077 L30.3153846,25.0923077 C30.5307692,25.0923077 30.6384615,24.9846154 30.7461538,24.7692308 C30.8,24.6615385 30.8538462,24.5 30.9076923,24.3923077 C31.1769231,23.6923077 31.5,22.9384615 31.7692308,22.2384615 C31.8769231,22.0230769 31.7692308,21.9153846 31.5538462,21.9153846 L31.0692308,21.9153846 L30.6384615,21.9153846 L30.6384615,17.5538462 C30.8,17.8230769 30.9076923,18.1461538 31.0153846,18.4153846 C31.8769231,20.5153846 32.6846154,22.5615385 33.5461538,24.6615385 C33.6538462,24.9846154 33.7615385,25.0384615 34.1384615,25.0384615 L37.0461538,25.0384615 C37.3692308,25.0384615 37.4769231,24.9307692 37.5846154,24.6615385 C37.8,24.1230769 38.0153846,23.6384615 38.2307692,23.1 C39.0923077,20.9461538 39.9538462,18.7923077 40.8692308,16.6384615 C40.9769231,16.3692308 40.9230769,16.2615385 40.6538462,16.2615385 L37.6923077,16.2615385 C37.4769231,16.2615385 37.3692308,16.3153846 37.3153846,16.5307692 C36.8846154,17.9307692 36.4,19.3307692 35.9692308,20.7307692 C35.8615385,21 35.8076923,21.2692308 35.7,21.5923077 C35.6461538,21.4307692 35.5923077,21.2692308 35.5384615,21.1615385 C35.0538462,19.6538462 34.5692308,18.0923077 34.0307692,16.5846154 C33.9230769,16.3153846 33.8692308,16.2615385 33.6,16.2615385 L28,16.2615385 C27.6230769,16.2615385 27.5692308,16.3153846 27.5692308,16.6384615 L27.5692308,17.8230769 C27.4615385,17.6615385 27.4076923,17.3923077 27.2461538,17.2307692 C26.7076923,16.5307692 26.0076923,16.2615385 25.1461538,16.2615385 C23.6384615,16.2615385 22.5076923,17.0153846 21.8615385,18.3615385 C21.7,18.6846154 21.5923077,19.0076923 21.4846154,19.2769231 C21.4846154,19.0615385 21.4846154,18.8461538 21.4307692,18.6307692 C21.3769231,18.2 21.3230769,17.7153846 21.0538462,17.3384615 C20.6230769,16.6923077 19.9769231,16.3153846 19.2230769,16.2615385 C18.5230769,16.2076923 17.8230769,16.2076923 17.1769231,16.2076923 C17.0153846,16.2076923 16.9076923,16.2615385 16.8538462,16.4230769" id="Fill-1"></path>
                                    <path d="M0.269230769,25.0384615 C0.430769231,24.7153846 0.538461538,24.3923077 0.7,24.0692308 C1.72307692,21.5384615 2.74615385,19.0076923 3.76923077,16.4769231 C3.82307692,16.4230769 3.82307692,16.3692308 3.93076923,16.3692308 L7.10769231,16.3692308 L7.21538462,16.3692308 C7.16153846,16.4769231 7.16153846,16.5307692 7.10769231,16.6384615 C6.13846154,19.0615385 5.11538462,21.5384615 4.14615385,23.9615385 C4.03846154,24.2846154 3.87692308,24.6076923 3.71538462,24.9846154 C3.71538462,25.0384615 3.60769231,25.0923077 3.60769231,25.0923077 C2.47692308,25.0384615 1.4,25.0384615 0.269230769,25.0384615 L0.269230769,25.0384615 L0.269230769,25.0384615 Z" id="Fill-3"></path>
                                    <g id="Group-7" transform="translate(50.615385, 16.153846)">
                                        <path d="M4.46923077,0.215384615 C4.30769231,0.592307692 4.14615385,1.02307692 3.98461538,1.4 C3.01538462,3.82307692 2.04615385,6.3 1.07692308,8.72307692 C1.02307692,8.83076923 0.969230769,8.83076923 0.915384615,8.83076923 L0.0538461538,8.83076923 C0.161538462,8.56153846 0.269230769,8.34615385 0.376923077,8.07692308 C1.4,5.49230769 2.42307692,2.90769231 3.5,0.323076923 C3.55384615,0.161538462 3.60769231,0.107692308 3.76923077,0.161538462 C3.93076923,0.215384615 4.2,0.215384615 4.46923077,0.215384615 L4.46923077,0.215384615 L4.46923077,0.215384615 Z" id="Fill-5"></path>
                                    </g>
                                    <path d="M49.1076923,16.3153846 C48.9461538,16.8 48.7307692,17.2307692 48.5692308,17.6615385 C47.6,20.0846154 46.6307692,22.4538462 45.7153846,24.8769231 C45.6615385,24.9846154 45.6076923,25.0384615 45.4461538,25.0384615 L43.9923077,25.0384615 L43.8307692,25.0384615 C43.9384615,24.7692308 44.0461538,24.5 44.1538462,24.2307692 C44.8538462,22.5076923 45.5538462,20.7846154 46.2538462,19.0076923 C46.5769231,18.1461538 46.9538462,17.2846154 47.2769231,16.4230769 C47.3307692,16.3153846 47.3846154,16.2615385 47.4923077,16.2615385 L49,16.2615385 L49.1076923,16.2615385 L49.1076923,16.3153846 Z" id="Fill-8"></path>
                                    <path d="M27.4076923,21.8615385 L25.4692308,21.8615385 C24.8769231,21.8076923 24.3923077,21.2692308 24.3923077,20.7307692 C24.3384615,20.0846154 24.7692308,19.5461538 25.3615385,19.3846154 C25.7384615,19.3307692 26.1692308,19.2769231 26.5461538,19.3846154 C27.0846154,19.5461538 27.4076923,20.0307692 27.4076923,20.5692308 L27.4076923,21.6461538 L27.4076923,21.8615385" id="Fill-10"></path>
                                </g>
                            </g>
                        </g>
                    </g>
                </g>
            </g>
        </g>
    </g>
</svg>