<?xml version="1.0" encoding="UTF-8" standalone="no"?>
<svg width="9px" height="14px" viewBox="0 0 9 14" version="1.1" xmlns="http://www.w3.org/2000/svg" xmlns:xlink="http://www.w3.org/1999/xlink">
    <!-- Generator: sketchtool 3.8.3 (29802) - http://www.bohemiancoding.com/sketch -->
    <title>2511F721-E336-48C4-902D-2841CD91757C</title>
    <desc>Created with sketchtool.</desc>
    <defs></defs>
    <g id="Sort-bar" stroke="none" stroke-width="1" fill="none" fill-rule="evenodd">
        <g id="sort-bar" transform="translate(-497.000000, -25.000000)" fill="#FFFFFF">
            <path d="M497.583702,38.9998155 C497.418036,38.9998155 497.253537,38.9298158 497.138038,38.7927333 C496.929789,38.5477346 496.960705,38.1796533 497.206871,37.9708211 L504.263415,31.9998539 L497.206871,26.0288867 C496.960705,25.8200545 496.929789,25.4519732 497.138038,25.2063912 C497.346287,24.9602259 497.714368,24.9304761 497.960533,25.1375583 L505.543825,31.5541897 C505.674491,31.6656057 505.750324,31.8283548 505.750324,31.9998539 C505.750324,32.171353 505.674491,32.3341021 505.543825,32.4455181 L497.960533,38.8621495 C497.850867,38.9543157 497.716701,38.9998155 497.583702,38.9998155" id="pil-tilbake" transform="translate(501.375162, 31.999908) rotate(-180.000000) translate(-501.375162, -31.999908) "></path>
        </g>
    </g>
</svg>